<svg width="25" height="26" viewBox="0 0 25 26" fill="none" xmlns="http://www.w3.org/2000/svg">
<path d="M8.61755 10.5999V8.59985H6.61755V13.0999C6.61755 13.376 6.39369 13.5999 6.11755 13.5999C5.84141 13.5999 5.61755 13.376 5.61755 13.0999V7.59985H8.61755C8.61755 5.19613 10.5698 3.59985 12.6176 3.59985C14.6751 3.59985 16.6176 5.30541 16.6176 7.59985H19.6176V20.0999C19.6176 20.9283 18.946 21.5999 18.1176 21.5999H13.1176C12.8415 21.5999 12.6176 21.376 12.6176 21.0999C12.6176 20.8238 12.8415 20.5999 13.1176 20.5999H18.1176C18.3937 20.5999 18.6176 20.376 18.6176 20.0999V8.59985H16.6176V10.5999H15.6176V8.59985H9.61755V10.5999H8.61755ZM12.6176 4.59985C11.0653 4.59985 9.61755 5.80357 9.61755 7.59985H15.6176C15.6176 5.89429 14.1601 4.59985 12.6176 4.59985Z" fill="#1F2026"/>
<path d="M8.11755 14.5999C8.39369 14.5999 8.61755 14.8238 8.61755 15.0999V17.5999H11.1176C11.3937 17.5999 11.6176 17.8238 11.6176 18.0999C11.6176 18.376 11.3937 18.5999 11.1176 18.5999H8.61755V21.0999C8.61755 21.376 8.39369 21.5999 8.11755 21.5999C7.84141 21.5999 7.61755 21.376 7.61755 21.0999V18.5999H5.11755C4.84141 18.5999 4.61755 18.376 4.61755 18.0999C4.61755 17.8238 4.84141 17.5999 5.11755 17.5999H7.61755V15.0999C7.61755 14.8238 7.84141 14.5999 8.11755 14.5999Z" fill="#1F2026"/>
</svg>
