<svg width="21" height="21" viewBox="0 0 21 21" fill="none" xmlns="http://www.w3.org/2000/svg">
<path d="M6.56755 2.6499C9.13547 2.6499 10.6176 4.80224 10.6176 4.80224C10.6176 4.80224 12.1026 2.6499 14.6676 2.6499C17.3226 2.6499 19.6176 4.7199 19.6176 7.5999C19.6176 11.8304 13.178 16.2696 10.9827 18.2102C10.7758 18.3931 10.4593 18.3931 10.2524 18.2102C8.05811 16.2708 1.61755 11.8302 1.61755 7.5999C1.61755 4.7199 3.91255 2.6499 6.56755 2.6499Z" fill="white" fill-opacity="0.6"/>
<path d="M1.61755 7.51476C1.61755 4.85287 3.76772 2.6499 6.48241 2.6499C8.6044 2.6499 9.97676 4.00866 10.6176 4.83663C11.2584 4.00866 12.6308 2.6499 14.7527 2.6499C17.4682 2.6499 19.6176 4.85292 19.6176 7.51476C19.6176 8.67977 19.1504 9.83612 18.471 10.9149C17.7892 11.9975 16.8696 13.0402 15.9076 13.9876C14.5743 15.3007 13.0933 16.4886 12.031 17.3406C11.5794 17.7028 11.2035 18.0043 10.9469 18.2289C10.7583 18.3938 10.4768 18.3938 10.2883 18.2289C10.0316 18.0043 9.6557 17.7028 9.20414 17.3406C8.14186 16.4886 6.66081 15.3007 5.32752 13.9876C4.36557 13.0402 3.44591 11.9975 2.76414 10.9149C2.08479 9.83612 1.61755 8.67977 1.61755 7.51476ZM6.48241 3.6499C4.32684 3.6499 2.61755 5.39828 2.61755 7.51476C2.61755 8.41733 2.98308 9.38597 3.61032 10.382C4.23514 11.3741 5.09588 12.3559 6.0292 13.2751C7.32788 14.5541 8.70178 15.6549 9.75151 16.496C10.0748 16.7551 10.3674 16.9895 10.6176 17.1969C10.8677 16.9895 11.1603 16.7551 11.4836 16.496C12.5334 15.6549 13.9073 14.5541 15.2059 13.2751C16.1393 12.3559 17 11.3741 17.6248 10.382C18.2521 9.38597 18.6176 8.41733 18.6176 7.51476C18.6176 5.39823 16.909 3.6499 14.7527 3.6499C12.6582 3.6499 11.4357 5.35201 11.1209 5.86018C10.8903 6.2324 10.3448 6.23239 10.1143 5.86017C9.79945 5.352 8.57699 3.6499 6.48241 3.6499Z" fill="#1F2026"/>
</svg>
