<svg width="18" height="18" viewBox="0 0 18 18" fill="none" xmlns="http://www.w3.org/2000/svg">
<rect x="8.06689" y="3.6001" width="1.89807" height="4.31922" fill="#7B00FF"/>
<path d="M5.76728 5.58417L3.6137 6.09334C3.59545 6.89515 3.58085 8.77618 3.66845 9.88583C3.75605 10.9955 4.43498 12.0103 4.76349 12.379C5.27451 13.1937 6.55814 13.8539 7.13608 14.0822C8.46473 14.658 10.2204 14.3221 10.9322 14.0822C12.0857 13.6748 13.0067 12.7536 13.3231 12.3439C14.0969 11.5152 14.3634 10.2428 14.3999 9.71026V6.1109L12.2828 5.53149L12.2098 10.1316C12.0784 11.5503 11.3033 12.3732 10.9322 12.6073C10.1 13.1972 9.10107 13.2043 8.70564 13.134C7.47919 13.1621 6.62506 12.2327 6.3513 11.7645C5.92789 11.2308 5.78553 10.0321 5.76728 9.49956V5.58417Z" fill="#7B00FF"/>
<circle cx="9" cy="9" r="8.5" stroke="#7B00FF"/>
</svg>
